# This file uses centimeters as units for non-parametric coordinates.

mtllib tree.mtl
g default
v 1.066463 -1.000000 -1.847167
v -1.066462 -1.000000 -1.847167
v -2.132925 -1.000000 -0.000000
v -1.066463 -1.000000 1.847167
v 1.066462 -1.000000 1.847167
v 2.132925 -1.000000 0.000000
v 0.120578 9.582077 -0.208847
v -0.120578 9.582077 -0.208847
v -0.241156 9.582077 -0.000000
v -0.120578 9.582077 0.208847
v 0.120578 9.582077 0.208847
v 0.241156 9.582077 -0.000000
v 0.000000 -1.000000 0.000000
v 0.000000 9.582077 -0.000000
v 0.140039 7.711462 -0.437982
v -0.140038 7.711462 -0.437982
v -0.280077 7.711462 -0.195428
v -0.140039 7.711462 0.047126
v 0.140038 7.711462 0.047126
v 0.280077 7.711462 -0.195428
v 0.883501 4.094106 0.005244
v 0.369637 4.094106 0.005244
v 0.112705 4.094106 0.450263
v 0.369637 4.094106 0.895282
v 0.883501 4.094106 0.895282
v 1.140433 4.094106 0.450263
v 0.768275 0.929948 -0.746170
v -0.093328 0.929948 -0.746170
v -0.524130 0.929948 -0.000000
v -0.093328 0.929948 0.746170
v 0.768274 0.929948 0.746170
v 1.199076 0.929948 -0.000000
v 0.398097 6.455863 0.064639
v 0.578710 6.455863 0.377470
v 0.398097 6.455863 0.690300
v 0.036872 6.455863 0.690300
v -0.143741 6.455863 0.377469
v 0.036872 6.455863 0.064639
v 0.571063 5.614289 0.043474
v 0.155447 5.614289 0.043474
v -0.052360 5.614289 0.403408
v 0.155447 5.614289 0.763342
v 0.571063 5.614289 0.763342
v 0.778871 5.614289 0.403408
v -0.120791 7.677619 2.642210
v 0.073067 7.665850 2.639771
v 0.000233 7.743086 2.541509
v -0.139667 7.753314 2.550616
v 0.058426 6.116062 1.188100
v 0.473498 6.114979 1.196492
v 0.302272 6.532929 1.130034
v -0.058481 6.533871 1.122741
v -0.072415 6.817675 2.161635
v -0.039581 7.053984 1.995388
v 0.244863 7.055380 2.025812
v 0.266068 6.816770 2.197260
v 0.000000 8.253890 1.157530
v 1.118216 9.447926 2.011770
v -0.427120 9.950035 2.011770
v -1.382190 8.253890 2.011770
v -0.427120 7.320953 2.011770
v 1.218549 7.441459 1.785516
v 1.382190 8.253890 3.393961
v 0.060851 9.950035 3.528573
v -1.006695 8.840086 3.712878
v -1.047322 7.500441 3.310338
v 0.427121 7.320953 3.393961
v 0.000000 8.253890 4.248201
v 0.000000 10.110116 -3.297256
v 2.385917 12.657807 -1.474578
v -0.911339 13.729151 -1.474578
v -2.949155 10.110116 -1.474578
v -0.911339 8.119524 -1.474578
v 2.599997 8.376646 -1.957332
v 2.949155 10.110116 1.474578
v 0.129836 13.729151 1.761798
v -2.147968 11.360871 2.155046
v -2.234653 8.502495 1.296152
v 0.911339 8.119524 1.474578
v 0.000000 10.110116 3.297256
vt 0.283611 0.020934
vt 0.127361 0.020934
vt 0.049236 0.156250
vt 0.127361 0.291566
vt 0.283611 0.291566
vt 0.361736 0.156250
vt 0.080486 0.312500
vt 0.122153 0.312500
vt 0.163819 0.312500
vt 0.205486 0.312500
vt 0.247153 0.312500
vt 0.288819 0.312500
vt 0.330486 0.312500
vt 0.080486 0.688440
vt 0.122153 0.688440
vt 0.163819 0.688440
vt 0.205486 0.688440
vt 0.247153 0.688440
vt 0.288819 0.688440
vt 0.330486 0.688440
vt 0.283611 0.708434
vt 0.127361 0.708434
vt 0.049236 0.843750
vt 0.127361 0.979066
vt 0.283611 0.979066
vt 0.361736 0.843750
vt 0.205486 0.150000
vt 0.205486 0.837500
vt 0.330486 0.621984
vt 0.080486 0.621984
vt 0.122153 0.621984
vt 0.163819 0.621984
vt 0.205486 0.621984
vt 0.247153 0.621984
vt 0.288819 0.621984
vt 0.330486 0.493474
vt 0.080486 0.493474
vt 0.122153 0.493474
vt 0.163819 0.493474
vt 0.205486 0.493474
vt 0.247153 0.493474
vt 0.288819 0.493474
vt 0.330486 0.381063
vt 0.080486 0.381063
vt 0.122153 0.381063
vt 0.163819 0.381063
vt 0.205486 0.381063
vt 0.247153 0.381063
vt 0.288819 0.381063
vt 0.330486 0.577378
vt 0.080486 0.577378
vt 0.288819 0.577378
vt 0.247153 0.577378
vt 0.205486 0.577378
vt 0.163819 0.577378
vt 0.122153 0.577378
vt 0.330486 0.547480
vt 0.080486 0.547480
vt 0.122153 0.547480
vt 0.163819 0.547480
vt 0.205486 0.547480
vt 0.247153 0.547480
vt 0.288819 0.547480
vt 0.205486 0.547480
vt 0.247153 0.547480
vt 0.247153 0.577378
vt 0.205486 0.577378
vt 0.205486 0.547480
vt 0.247153 0.547480
vt 0.247153 0.577378
vt 0.205486 0.577378
vt 0.205486 0.547480
vt 0.205486 0.577378
vt 0.247153 0.577378
vt 0.247153 0.547480
vt 0.714051 0.795029
vt 0.455708 0.870670
vt 0.570235 0.667889
vt 0.716760 0.936357
vt 0.975103 0.860716
vt 0.852891 0.662472
vt 0.448023 0.469645
vt 0.440337 0.068620
vt 0.701389 0.134307
vt 0.562549 0.266864
vt 0.959732 0.058666
vt 0.845205 0.261447
vt 0.967417 0.459691
vt 0.709074 0.535332
vt 0.706366 0.394004
vt 0.714051 0.795029
vt 0.455708 0.870670
vt 0.570235 0.667889
vt 0.716760 0.936357
vt 0.975103 0.860716
vt 0.852891 0.662472
vt 0.448023 0.469645
vt 0.440337 0.068620
vt 0.701389 0.134307
vt 0.562549 0.266864
vt 0.959732 0.058666
vt 0.845205 0.261447
vt 0.967417 0.459691
vt 0.709074 0.535332
vt 0.706366 0.394004
vn 0.000000 -0.128504 -0.991709
vn 0.000000 -0.103125 -0.994668
vn 0.000000 0.121583 -0.992581
vn 0.000000 0.121583 -0.992581
vn -0.862033 -0.095907 -0.497695
vn -0.859837 -0.119336 -0.496427
vn -0.863896 0.070083 -0.498770
vn -0.863896 0.070083 -0.498770
vn -0.865586 0.031882 0.499745
vn -0.864909 0.050778 0.499354
vn -0.865519 -0.034197 0.499707
vn -0.865519 -0.034197 0.499707
vn 0.000000 0.170561 0.985347
vn 0.000000 0.197594 0.980284
vn 0.000000 -0.086132 0.996284
vn 0.000000 -0.086132 0.996284
vn 0.850429 0.188930 0.490995
vn 0.854416 0.163188 0.493297
vn 0.865519 -0.034197 0.499707
vn 0.865519 -0.034197 0.499707
vn 0.865787 0.023504 -0.499861
vn 0.865525 0.034000 -0.499710
vn 0.863897 0.070083 -0.498769
vn 0.863897 0.070083 -0.498769
vn 0.000000 -1.000000 0.000000
vn 0.000000 -1.000000 0.000000
vn 0.000000 -1.000000 0.000000
vn 0.000000 -1.000000 0.000000
vn 0.000000 -1.000000 0.000000
vn 0.000000 -1.000000 0.000000
vn 0.000000 -1.000000 0.000000
vn 0.000000 1.000000 -0.000005
vn 0.000000 1.000000 0.000000
vn 0.000000 1.000000 -0.000001
vn 0.000000 1.000000 0.000000
vn 0.000000 1.000000 0.000000
vn 0.000000 1.000000 0.000002
vn 0.000000 1.000000 -0.000002
vn 0.000000 0.025141 -0.999684
vn 0.000000 0.025141 -0.999684
vn 0.000000 -0.221962 -0.975055
vn 0.000000 -0.180233 -0.983624
vn -0.860885 -0.108797 -0.497032
vn -0.860885 -0.108797 -0.497032
vn -0.846507 -0.211111 -0.488731
vn -0.843653 -0.225832 -0.487083
vn -0.863361 -0.078383 0.498461
vn -0.863361 -0.078383 0.498461
vn -0.865925 0.015238 0.499942
vn -0.864781 0.053586 0.499281
vn 0.073202 0.793661 0.603940
vn 0.073202 0.793661 0.603940
vn 0.073202 0.793661 0.603940
vn 0.073202 0.793661 0.603940
vn 0.845552 0.216154 0.488179
vn 0.845552 0.216154 0.488179
vn 0.819037 0.324917 0.472871
vn 0.822805 0.311966 0.475047
vn 0.850717 0.187197 -0.491161
vn 0.850717 0.187197 -0.491161
vn 0.864561 0.058138 -0.499154
vn 0.861996 0.096355 -0.497673
vn 0.000000 0.396764 -0.917921
vn 0.000000 0.412892 -0.910780
vn 0.000000 0.182361 -0.983232
vn 0.000000 0.186503 -0.982454
vn -0.761914 0.475376 -0.439892
vn -0.762870 0.473328 -0.440443
vn -0.855625 0.154515 -0.493995
vn -0.854164 0.164938 -0.493152
vn -0.772791 0.451359 0.446171
vn -0.785820 0.420297 0.453693
vn -0.864506 0.059220 0.499122
vn -0.864406 0.061138 0.499064
vn -0.000000 0.333365 0.942798
vn -0.000000 0.299586 0.954069
vn -0.000000 -0.017048 0.999855
vn -0.000000 -0.014384 0.999897
vn 0.842545 0.231279 0.486444
vn 0.842065 0.233599 0.486167
vn 0.866011 0.005793 0.499991
vn 0.865937 0.014285 0.499949
vn 0.833635 0.270931 -0.481299
vn 0.828404 0.291540 -0.478279
vn 0.860738 0.110331 -0.496947
vn 0.860630 0.111453 -0.496885
vn 0.000000 0.495518 -0.868598
vn 0.000000 0.495518 -0.868598
vn -0.702171 0.585326 -0.405399
vn -0.702171 0.585326 -0.405399
vn -0.702172 0.585327 0.405399
vn -0.702172 0.585327 0.405399
vn -0.000000 0.495518 0.868598
vn -0.000000 0.495518 0.868598
vn 0.798732 0.386484 0.461148
vn 0.798732 0.386484 0.461148
vn 0.798732 0.386484 -0.461148
vn 0.798732 0.386484 -0.461148
vn 0.000000 0.455911 0.890025
vn 0.000000 0.455911 0.890025
vn -0.000000 0.086467 0.996255
vn -0.000000 0.086467 0.996255
vn -0.026677 -0.766292 0.641938
vn -0.024548 -0.753653 0.656815
vn -0.046645 -0.724188 0.688023
vn -0.047890 -0.711914 0.700632
vn 0.963465 0.267727 0.007621
vn 0.963370 0.267954 -0.010882
vn 0.961933 0.271830 -0.028184
vn 0.962140 0.270763 -0.031207
vn 0.020045 0.918884 -0.394019
vn 0.021475 0.910858 -0.412161
vn 0.037766 0.788574 -0.613779
vn 0.037360 0.792383 -0.608879
vn -0.988728 -0.148156 -0.021605
vn -0.984963 -0.165857 -0.048374
vn -0.995139 -0.098007 -0.009698
vn -0.995749 -0.089866 -0.020216
vn -0.008516 -0.651133 0.758916
vn -0.008516 -0.651133 0.758916
vn 0.962953 0.267189 0.036495
vn 0.962953 0.267189 0.036495
vn 0.003046 0.984669 -0.174408
vn 0.003046 0.984669 -0.174408
vn -0.977240 -0.192518 -0.089101
vn -0.977240 -0.192518 -0.089101
vn -0.995090 -0.032687 -0.093422
vn -0.995090 -0.032687 -0.093422
vn 0.052261 0.618405 -0.784120
vn 0.052261 0.618405 -0.784120
vn 0.960333 0.278729 -0.008428
vn 0.960333 0.278729 -0.008428
vn -0.065946 -0.481394 0.874020
vn -0.065946 -0.481394 0.874020
vn 0.154387 0.475154 -0.866252
vn 0.154387 0.475154 -0.866252
vn 0.154387 0.475154 -0.866252
vn -0.504106 0.283854 -0.815662
vn -0.504106 0.283854 -0.815662
vn -0.504106 0.283854 -0.815662
vn -0.462941 -0.473924 -0.749054
vn -0.462941 -0.473923 -0.749054
vn -0.462941 -0.473924 -0.749054
vn -0.054567 -0.660606 -0.748747
vn -0.054567 -0.660606 -0.748747
vn -0.054567 -0.660606 -0.748747
vn 0.517466 0.121391 -0.847050
vn 0.517466 0.121391 -0.847050
vn 0.517466 0.121391 -0.847050
vn 0.307501 0.946392 -0.098926
vn 0.307501 0.946392 -0.098926
vn 0.307501 0.946392 -0.098926
vn -0.871123 0.490514 0.023259
vn -0.871123 0.490514 0.023259
vn -0.871123 0.490514 0.023259
vn -0.680260 -0.696398 -0.228639
vn -0.680260 -0.696398 -0.228639
vn -0.680260 -0.696398 -0.228639
vn 0.067280 -0.996867 -0.041581
vn 0.067280 -0.996867 -0.041581
vn 0.067280 -0.996867 -0.041581
vn 0.988992 0.064473 -0.133184
vn 0.988992 0.064473 -0.133184
vn 0.988992 0.064473 -0.133184
vn 0.754669 0.560890 0.340408
vn 0.754669 0.560890 0.340408
vn 0.754669 0.560890 0.340408
vn -0.684520 0.694936 0.220217
vn -0.684520 0.694936 0.220217
vn -0.684520 0.694936 0.220217
vn -0.972830 -0.039068 0.228201
vn -0.972830 -0.039068 0.228201
vn -0.972830 -0.039068 0.228201
vn -0.124790 -0.989181 0.077125
vn -0.124790 -0.989181 0.077125
vn -0.124790 -0.989181 0.077125
vn 0.671077 -0.686997 0.278730
vn 0.671077 -0.686997 0.278730
vn 0.671077 -0.686997 0.278730
vn 0.497437 0.323638 0.804870
vn 0.497437 0.323638 0.804870
vn 0.497437 0.323638 0.804870
vn -0.247823 0.385910 0.888626
vn -0.247823 0.385910 0.888626
vn -0.247823 0.385910 0.888626
vn -0.555956 -0.223691 0.800547
vn -0.555956 -0.223691 0.800547
vn -0.555956 -0.223691 0.800547
vn -0.125126 -0.700561 0.702537
vn -0.125126 -0.700561 0.702537
vn -0.125126 -0.700561 0.702537
vn 0.462941 -0.473923 0.749055
vn 0.462941 -0.473923 0.749055
vn 0.462941 -0.473923 0.749055
vn 0.154387 0.475154 -0.866253
vn 0.154387 0.475154 -0.866253
vn 0.154387 0.475154 -0.866253
vn -0.504106 0.283854 -0.815662
vn -0.504106 0.283854 -0.815662
vn -0.504106 0.283854 -0.815662
vn -0.462941 -0.473924 -0.749054
vn -0.462941 -0.473924 -0.749054
vn -0.462941 -0.473924 -0.749054
vn -0.054568 -0.660605 -0.748748
vn -0.054568 -0.660605 -0.748748
vn -0.054567 -0.660605 -0.748748
vn 0.517466 0.121391 -0.847050
vn 0.517466 0.121391 -0.847050
vn 0.517466 0.121391 -0.847050
vn 0.307501 0.946391 -0.098926
vn 0.307501 0.946391 -0.098926
vn 0.307501 0.946391 -0.098926
vn -0.871123 0.490514 0.023259
vn -0.871123 0.490514 0.023259
vn -0.871123 0.490514 0.023259
vn -0.680260 -0.696398 -0.228639
vn -0.680260 -0.696398 -0.228640
vn -0.680260 -0.696398 -0.228639
vn 0.067280 -0.996867 -0.041582
vn 0.067280 -0.996867 -0.041582
vn 0.067280 -0.996867 -0.041582
vn 0.988992 0.064473 -0.133184
vn 0.988992 0.064473 -0.133184
vn 0.988992 0.064473 -0.133184
vn 0.754669 0.560890 0.340408
vn 0.754669 0.560890 0.340408
vn 0.754669 0.560890 0.340408
vn -0.684520 0.694936 0.220217
vn -0.684520 0.694936 0.220217
vn -0.684520 0.694936 0.220217
vn -0.972830 -0.039068 0.228201
vn -0.972830 -0.039068 0.228201
vn -0.972830 -0.039068 0.228201
vn -0.124790 -0.989181 0.077125
vn -0.124790 -0.989181 0.077125
vn -0.124790 -0.989181 0.077125
vn 0.671077 -0.686997 0.278730
vn 0.671077 -0.686997 0.278731
vn 0.671077 -0.686997 0.278731
vn 0.497437 0.323638 0.804870
vn 0.497437 0.323638 0.804870
vn 0.497437 0.323638 0.804870
vn -0.247823 0.385911 0.888626
vn -0.247823 0.385910 0.888626
vn -0.247823 0.385911 0.888626
vn -0.555956 -0.223691 0.800547
vn -0.555956 -0.223691 0.800547
vn -0.555956 -0.223691 0.800547
vn -0.125126 -0.700561 0.702537
vn -0.125126 -0.700561 0.702537
vn -0.125126 -0.700561 0.702537
vn 0.462941 -0.473924 0.749054
vn 0.462941 -0.473924 0.749054
vn 0.462941 -0.473924 0.749054
s 1
g pCylinder2
usemtl aiStandardSurface1SG
f 15/30/1 16/31/2 8/15/3 7/14/4
s 2
f 16/31/5 17/32/6 9/16/7 8/15/8
s 3
f 17/32/9 18/33/10 10/17/11 9/16/12
s 4
f 18/33/13 19/34/14 11/18/15 10/17/16
s 5
f 19/34/17 20/35/18 12/19/19 11/18/20
s 6
f 20/35/21 15/29/22 7/20/23 12/19/24
s 7
f 2/2/25 1/1/26 13/27/27
f 3/3/28 2/2/25 13/27/27
f 4/4/29 3/3/28 13/27/27
f 5/5/30 4/4/29 13/27/27
f 6/6/31 5/5/30 13/27/27
f 1/1/26 6/6/31 13/27/27
s 8
f 7/25/32 8/24/33 14/28/34
f 8/24/33 9/23/35 14/28/34
f 9/23/35 10/22/36 14/28/34
f 10/22/36 11/21/37 14/28/34
f 11/21/37 12/26/38 14/28/34
f 12/26/38 7/25/32 14/28/34
s 1
f 39/58/39 40/59/40 38/56/41 33/51/42
s 2
f 40/59/43 41/60/44 37/55/45 38/56/46
s 3
f 41/60/47 42/61/48 36/54/49 37/55/50
s off
f 45/64/51 46/65/52 47/66/53 48/67/54
s 5
f 43/62/55 44/63/56 34/52/57 35/53/58
s 6
f 44/63/59 39/57/60 33/50/61 34/52/62
s 1
f 27/44/63 28/45/64 22/38/65 21/37/66
s 2
f 28/45/67 29/46/68 23/39/69 22/38/70
s 3
f 29/46/71 30/47/72 24/40/73 23/39/74
s 17
f 30/47/75 31/48/76 25/41/77 24/40/78
s 5
f 31/48/79 32/49/80 26/42/81 25/41/82
s 6
f 32/49/83 27/43/84 21/36/85 26/42/86
s 1
f 1/7/87 2/8/88 28/45/64 27/44/63
s 2
f 2/8/89 3/9/90 29/46/68 28/45/67
s 3
f 3/9/91 4/10/92 30/47/72 29/46/71
s 17
f 4/10/93 5/11/94 31/48/76 30/47/75
s 5
f 5/11/95 6/12/96 32/49/80 31/48/79
s 6
f 6/12/97 1/13/98 27/43/84 32/49/83
f 34/52/62 33/50/61 15/29/22 20/35/21
s 5
f 35/53/58 34/52/57 20/35/18 19/34/17
s 4
f 36/54/99 35/53/100 19/34/14 18/33/13
s 3
f 37/55/50 36/54/49 18/33/10 17/32/9
s 2
f 38/56/46 37/55/45 17/32/6 16/31/5
s 1
f 33/51/42 38/56/41 16/31/2 15/30/1
f 21/37/66 22/38/65 40/59/40 39/58/39
s 2
f 22/38/70 23/39/69 41/60/44 40/59/43
s 3
f 23/39/74 24/40/73 42/61/48 41/60/47
s 17
f 24/40/78 25/41/77 43/62/101 42/61/102
s 5
f 25/41/82 26/42/81 44/63/56 43/62/55
s 6
f 26/42/86 21/36/85 39/57/60 44/63/59
s 20
f 49/68/103 50/69/104 56/75/105 53/72/106
s 21
f 50/69/107 51/70/108 55/74/109 56/75/110
s 22
f 51/70/111 52/71/112 54/73/113 55/74/114
s 23
f 52/71/115 49/68/116 53/72/117 54/73/118
s 20
f 42/61/119 43/62/120 50/69/104 49/68/103
s 21
f 43/62/121 35/53/122 51/70/108 50/69/107
s 22
f 35/53/123 36/54/124 52/71/112 51/70/111
s 23
f 36/54/125 42/61/126 49/68/116 52/71/115
f 54/73/118 53/72/117 45/64/127 48/67/128
s 22
f 55/74/114 54/73/113 48/67/129 47/66/130
s 21
f 56/75/110 55/74/109 47/66/131 46/65/132
s 20
f 53/72/106 56/75/105 46/65/133 45/64/134
s off
f 57/76/135 59/77/136 58/78/137
f 57/76/138 60/79/139 59/77/140
f 57/76/141 61/80/142 60/79/143
f 57/76/144 62/81/145 61/80/146
f 57/76/147 58/78/148 62/81/149
f 58/78/150 59/77/151 64/82/152
f 59/83/153 60/84/154 65/85/155
f 60/84/156 61/86/157 66/87/158
f 61/80/159 62/81/160 67/88/161
f 62/81/162 58/78/163 63/89/164
f 58/78/165 64/82/166 63/89/167
f 59/83/168 65/85/169 64/82/170
f 60/84/171 66/87/172 65/85/173
f 61/86/174 67/88/175 66/87/176
f 62/81/177 63/89/178 67/88/179
f 63/89/180 64/82/181 68/90/182
f 64/82/183 65/85/184 68/90/185
f 65/85/186 66/87/187 68/90/188
f 66/87/189 67/88/190 68/90/191
f 67/88/192 63/89/193 68/90/194
f 69/91/195 71/92/196 70/93/197
f 69/91/198 72/94/199 71/92/200
f 69/91/201 73/95/202 72/94/203
f 69/91/204 74/96/205 73/95/206
f 69/91/207 70/93/208 74/96/209
f 70/93/210 71/92/211 76/97/212
f 71/98/213 72/99/214 77/100/215
f 72/99/216 73/101/217 78/102/218
f 73/95/219 74/96/220 79/103/221
f 74/96/222 70/93/223 75/104/224
f 70/93/225 76/97/226 75/104/227
f 71/98/228 77/100/229 76/97/230
f 72/99/231 78/102/232 77/100/233
f 73/101/234 79/103/235 78/102/236
f 74/96/237 75/104/238 79/103/239
f 75/104/240 76/97/241 80/105/242
f 76/97/243 77/100/244 80/105/245
f 77/100/246 78/102/247 80/105/248
f 78/102/249 79/103/250 80/105/251
f 79/103/252 75/104/253 80/105/254
